PathFileType	4	(X/Y/Z)	 s03c0202.trc
DataRate	CameraRate	NumFrames	NumMarkers	Units	OrigDataRate	OrigDataStartFrame	OrigNumFrames
200	200	5	52	mm	200	1001	2000
Frame#	Time	racr			lacr			c7			jug			rlel			rdr			llel			ldr			s2			lic			ric			lasi			rasi			rpsi			lpsi			rgt			lgt			rth1			rth2			rth3			rth4			rlfc			rmfc			rsh1			rsh2			rsh3			rsh4			rlmal			rmmal			rcal			rtoe			rmt5			rmt1			lth1			lth2			lth4			lth3			llfc			lmfc			lsh1			lsh2			lsh3			lsh4			llmal			lmmal			lcal			ltoe			lmt1			lmt5			SBIKE			LBIKE			RBIKE			
		X1	Y1	Z1	X2	Y2	Z2	X3	Y3	Z3	X4	Y4	Z4	X5	Y5	Z5	X6	Y6	Z6	X7	Y7	Z7	X8	Y8	Z8	X9	Y9	Z9	X10	Y10	Z10	X11	Y11	Z11	X12	Y12	Z12	X13	Y13	Z13	X14	Y14	Z14	X15	Y15	Z15	X16	Y16	Z16	X17	Y17	Z17	X18	Y18	Z18	X19	Y19	Z19	X20	Y20	Z20	X21	Y21	Z21	X22	Y22	Z22	X23	Y23	Z23	X24	Y24	Z24	X25	Y25	Z25	X26	Y26	Z26	X27	Y27	Z27	X28	Y28	Z28	X29	Y29	Z29	X30	Y30	Z30	X31	Y31	Z31	X32	Y32	Z32	X33	Y33	Z33	X34	Y34	Z34	X35	Y35	Z35	X36	Y36	Z36	X37	Y37	Z37	X38	Y38	Z38	X39	Y39	Z39	X40	Y40	Z40	X41	Y41	Z41	X42	Y42	Z42	X43	Y43	Z43	X44	Y44	Z44	X45	Y45	Z45	X46	Y46	Z46	X47	Y47	Z47	X48	Y48	Z48	X49	Y49	Z49	X50	Y50	Z50	X51	Y51	Z51	X52	Y52	Z52	
1001	5.0050	512.448401	1398.319650	-111.321146	484.967248	1407.707174	-418.037148	431.602107	1486.724179	-261.594664	436.753017	1309.207172	-258.194450	549.752781	1200.390172	81.232647	720.661659	995.015011	-22.009218	552.135396	1198.871680	-581.327942	728.307943	986.099660	-455.369325	-92.022607	1208.015733	-209.603654	70.087571	1240.147511	-405.675140	82.937539	1248.737208	-38.034874	97.865448	1177.146861	-360.114374	109.870116	1177.614204	-82.388058	-64.528425	1260.048869	-167.991408	-62.448919	1258.756259	-251.254012	22.822182	1123.739599	-25.789510	32.782853	1159.301289	-421.745196	94.519341	973.303163	-6.634289	161.407260	914.820171	-4.898942	192.940438	835.321353	-16.595371	191.669400	935.592945	-11.112977	251.224085	724.402209	-47.380225	263.643524	710.404879	-163.009882	229.162127	558.288508	-21.433440	245.396392	471.146151	-33.469129	214.927238	388.157148	-38.291103	275.682615	471.031856	-57.494167	193.701799	257.603754	-61.663055	220.377976	272.072712	-140.152245	132.517785	222.526700	-95.764567	440.960645	184.362663	-110.083012	322.596240	174.408626	-35.076381	346.708937	198.575815	-147.674842	154.201164	1085.590593	-451.515540	238.902573	1072.750852	-462.579071	255.080392	1103.558508	-450.046177	307.548222	1015.648901	-470.950741	434.566307	958.743684	-462.942791	442.585274	944.798701	-329.693378	319.335712	831.798516	-467.972166	282.214652	759.333665	-442.048138	207.356567	709.635542	-430.816578	308.409668	741.409089	-419.841285	119.504727	627.474183	-402.893131	156.755750	628.531508	-317.084620	42.356362	619.610089	-354.252274	298.191992	447.024312	-350.312726	216.293234	494.247114	-308.513789	187.778209	493.179662	-424.262808	-213.894795	946.183339	-229.776570	-5.928612	84.087307	-434.982866	-11.067504	80.632802	-34.642803	
1002	5.0100	513.163626	1399.202357	-114.209676	482.841467	1407.134011	-420.576677	430.906185	1486.790257	-264.013441	436.035064	1309.292943	-260.029326	551.812468	1201.723837	78.905083	721.831239	995.011529	-23.674192	549.520690	1197.602369	-582.841051	728.356306	986.188751	-456.264323	-92.181840	1207.854466	-206.236858	68.727422	1240.202884	-404.255805	84.349290	1249.076681	-37.011645	97.078411	1177.729176	-358.822297	111.031401	1178.233507	-81.415817	-64.159369	1259.955491	-165.281979	-62.901496	1258.546240	-248.273537	23.548447	1123.757670	-24.077547	32.662167	1160.082393	-420.206794	93.051500	972.944120	-3.963828	159.315104	913.549425	-2.887139	189.922476	833.621217	-14.622744	189.893767	934.055849	-9.378349	246.986976	722.018663	-45.833930	259.485249	708.226164	-161.686947	223.687731	556.310274	-20.456157	239.296302	468.795667	-32.711472	208.375286	386.149764	-37.683213	269.629930	468.719525	-56.643645	186.225309	255.890370	-61.406894	213.849010	270.343183	-139.449291	124.565175	222.176158	-95.750472	432.093318	178.062215	-109.981803	313.558178	170.099648	-35.143466	338.311547	193.996593	-147.577822	155.459890	1087.652712	-449.516792	240.206729	1075.421248	-459.928269	256.092595	1106.710998	-447.855522	309.601620	1019.344224	-468.239843	437.031461	964.767133	-460.407843	444.720168	950.523002	-327.101192	322.848181	836.875700	-465.735971	286.516549	763.852970	-440.136880	212.283512	713.355585	-429.323393	312.849311	746.205269	-418.043236	125.097536	630.098074	-402.049334	162.399394	630.825458	-315.897439	47.368845	620.527562	-353.065048	307.981614	454.966004	-350.683053	224.889466	499.940550	-308.459696	196.041958	498.382437	-424.156015	-213.859911	946.216685	-229.830019	-5.952363	84.044945	-435.041501	-11.397274	81.073254	-34.606032	
1003	5.0150	513.930492	1399.896610	-117.145378	480.710029	1406.372484	-423.075283	430.241560	1486.827020	-266.704087	435.237558	1309.219866	-262.054702	554.011505	1203.094509	76.627690	723.027767	995.062841	-25.341604	547.138314	1196.196668	-584.409689	728.359594	986.304626	-457.064043	-92.504108	1207.862694	-203.710821	68.337040	1240.901646	-404.905242	85.449384	1249.596310	-35.982209	96.193942	1178.274501	-357.544316	111.909877	1178.810036	-80.417393	-63.966603	1260.089174	-162.942220	-63.359546	1258.584383	-245.395659	23.977651	1123.986752	-22.423610	32.307352	1161.090705	-418.540085	91.890469	972.660167	-2.253968	157.571700	912.482277	-0.938485	187.273646	832.426564	-12.612434	188.320171	932.833392	-7.617886	243.233948	720.158436	-44.212350	255.872813	706.643926	-160.317170	218.377991	554.834216	-19.360347	233.269841	467.275900	-31.827523	201.610413	384.837369	-37.095096	264.359816	466.945297	-55.363600	178.423214	254.858328	-61.060094	206.532465	269.115842	-138.864223	116.432008	222.532155	-95.702900	422.897789	172.163892	-109.861712	304.173266	166.319829	-35.183254	329.500097	189.906122	-147.591569	156.505119	1089.704637	-447.090360	241.526315	1078.289809	-457.702339	257.161834	1110.077651	-446.150764	311.615756	1022.922500	-465.259717	439.135831	970.673952	-457.762136	446.506008	956.174829	-324.416569	326.242792	841.619825	-463.551162	290.750773	767.941473	-438.320304	217.051466	716.598267	-428.023741	317.082393	750.644393	-416.068080	130.441594	632.165267	-401.159107	167.887365	632.864832	-314.877863	52.502370	620.575084	-351.671913	317.803941	462.382637	-350.832839	233.757421	505.090756	-308.344230	204.408683	503.021254	-423.837333	-213.874328	946.231951	-229.629967	-5.949199	84.063254	-435.035301	-11.395288	81.075387	-34.606995	
1004	5.0200	514.656916	1400.291953	-120.145609	478.478092	1405.501411	-425.241720	429.657352	1486.657034	-268.896459	434.670561	1309.111998	-264.446910	556.176799	1204.432556	74.411481	724.168263	995.110887	-27.031237	544.680242	1194.737357	-585.894781	728.336624	986.361986	-457.808071	-92.777221	1208.134184	-202.941387	67.107907	1241.509311	-403.840833	86.313978	1250.299718	-34.968267	95.219107	1178.782316	-356.285465	112.547165	1179.486466	-79.371202	-63.837932	1260.317602	-160.905595	-63.945313	1258.855917	-242.910018	24.077985	1124.497867	-20.859013	31.982972	1162.198459	-417.050161	90.886716	972.637682	-0.631158	156.079316	911.964454	0.974882	185.099281	831.571744	-10.592337	186.962633	932.029810	-5.896998	239.806616	718.817211	-42.595333	253.015860	705.488305	-158.873307	213.355003	553.923875	-18.273844	227.216950	466.293893	-30.933349	194.723404	384.206420	-36.337943	258.493989	465.574029	-54.299448	170.419325	254.351052	-60.735348	199.002670	268.468628	-138.245937	108.023023	223.352261	-95.783978	413.367809	167.024938	-109.768779	294.456685	163.269748	-35.193138	320.415640	186.559181	-147.608111	157.537820	1091.756517	-445.307138	242.705340	1081.148108	-455.442344	257.960807	1113.091817	-444.036579	313.401984	1026.374578	-462.304766	440.839486	976.280695	-455.081507	448.105559	961.492729	-321.673512	329.327006	846.071199	-462.035449	294.696733	771.703559	-436.668963	221.550383	719.529554	-426.670075	321.059750	754.714808	-413.919381	135.739058	633.753442	-399.877926	173.186605	635.129028	-313.385986	57.847167	619.663653	-350.038731	327.821132	469.634967	-351.441223	242.253696	508.886359	-308.975008	212.749067	506.752280	-423.163455	-213.871170	946.251073	-229.470941	-5.960887	84.117413	-435.038032	-11.400661	81.082697	-34.591934	
1005	5.0250	515.535771	1400.615125	-123.137492	476.095632	1404.594246	-426.940994	429.140133	1486.351398	-271.004209	433.764703	1308.915139	-266.502775	558.374149	1205.750198	72.416349	725.353850	995.112728	-28.641442	542.158647	1193.222409	-587.346291	728.222034	986.345597	-458.647683	-93.242383	1208.767400	-200.120310	65.676377	1242.230457	-402.501811	86.924710	1251.014160	-33.963639	94.160973	1179.252102	-355.050776	112.932656	1180.131587	-78.391916	-63.727357	1260.806027	-159.181823	-64.546237	1259.342158	-240.810313	23.891633	1125.156231	-19.348064	31.641822	1163.493469	-415.745965	90.171552	972.801117	0.891778	154.952477	911.799960	2.767966	183.412486	831.202461	-8.645660	185.973638	931.630676	-4.175736	237.654058	717.934802	-40.803811	250.528352	704.765442	-157.533495	208.598899	553.507820	-17.152687	221.323341	465.829006	-30.074621	187.783682	384.132491	-35.622756	252.659671	464.734435	-53.213393	162.115210	254.498179	-60.386586	191.216218	268.478593	-137.638657	98.900617	224.806380	-95.403111	403.479597	162.667173	-109.560954	284.509526	160.982180	-35.277471	311.120864	183.792424	-147.553183	158.356082	1093.920833	-443.530938	243.642846	1083.945822	-453.281496	258.557686	1116.154541	-441.944655	314.834673	1029.771686	-459.784070	442.186532	981.544532	-452.346036	449.484215	966.357252	-318.908664	332.387184	849.651884	-459.646457	298.342079	775.064997	-434.759573	225.759109	722.011140	-425.125035	324.785384	758.492024	-411.899358	141.047916	634.810239	-398.436931	179.034477	637.259323	-311.137884	63.823988	618.105794	-348.748985	337.852214	476.314833	-351.980198	251.422220	512.832704	-308.770307	221.452430	509.777085	-422.618482	-213.811840	946.305248	-229.191151	-5.988154	84.151265	-435.001022	-11.404289	81.101385	-34.559931	
